<svg width="676" height="118" xmlns="http://www.w3.org/2000/svg" xmlns:xlink="http://www.w3.org/1999/xlink" overflow="hidden"><g transform="translate(-47 -301)"><g><g><g><path d="M100.63-5.2925 108.992-2.175 108.992 0 73.5392 0 73.5392-2.175 82.215-4.76083 77.8408-62.8092 78.6383-62.7125 54.085 0.3625 43.4517 0.3625 18.3667-62.495 19.1642-62.64 15.7083-5.02667 24.2875-2.175 24.2875 0 1.32917 0 1.32917-2.175 9.73917-5.02667 13.7992-66.5067 4.93-70.325 4.93-72.5 33.9058-72.5 55.7767-16.5542 54.4958-16.6267 76.2458-72.5 104.037-72.5 104.037-70.325 95.5067-67.4008Z" fill="#163266" transform="matrix(1.00712 0 0 1 50.7286 390.275)"/><path d="M6.235-67.3042-1.32917-70.325-1.32917-72.5 36.0808-72.5 36.0808-70.325 27.1392-67.4008 48.8892-35.815 45.0225-35.7667 63.5583-67.4733 55.0275-70.325 55.0275-72.5 77.8892-72.5 77.8892-70.325 70.325-67.4008 49.2033-32.7942 49.2033-5.02667 57.0817-2.175 57.0817 0 23.3933 0 23.3933-2.175 31.2233-5.02667 31.2233-32.6008Z" fill="#163266" transform="matrix(1.00712 0 0 1 176.616 390.275)"/><path d="M37.3133-39.585C41.5002-39.585 44.8171-40.7329 47.27-43.0408 49.7169-45.3608 50.9433-48.7562 50.9433-53.2392 50.9433-56.121 50.4177-58.5679 49.3725-60.5858 48.3394-62.5977 46.69-64.1202 44.4183-65.1533 42.1467-66.1985 39.156-66.7242 35.4525-66.7242L14.7175-66.7242 18.1975-72.5 42.7992-72.5C49.0825-72.5 54.1092-71.7025 57.8792-70.1075 61.6612-68.5246 64.4042-66.3858 66.0958-63.6792 67.7875-60.9846 68.6333-57.9819 68.6333-54.665 68.6333-51.4569 67.8237-48.5387 66.2167-45.9167 64.6217-43.3067 62.2412-41.18 59.0875-39.5367 55.9277-37.9054 51.9825-36.9146 47.2458-36.5642L47.2458-36.7817C50.8044-36.6367 53.6379-36.111 55.7525-35.2108 57.8792-34.3046 59.5708-33.0117 60.8275-31.32 62.0842-29.6283 63.1294-27.4775 63.9692-24.8675L68.4642-11.4308C69.2858-9.09271 70.0833-7.37083 70.8567-6.25917 71.63-5.1475 72.5483-4.44667 73.6117-4.15667 74.6871-3.87875 76.0585-3.74583 77.72-3.74583L77.72 0.0966667C72.4033 0.483333 68.0896 0.616251 64.7908 0.5075 61.486 0.410833 58.8942-0.00604167 57.0092-0.749167 55.1242-1.48625 53.6742-2.59792 52.6592-4.08417 51.6562-5.56437 50.8285-7.4675 50.17-9.7875L45.6025-24.6983C44.8594-27.2117 44.0921-29.1087 43.3067-30.4017 42.5152-31.6885 41.5667-32.5767 40.455-33.06 39.3433-33.5554 37.9235-33.8092 36.2017-33.8092L17.6175-33.8092 14.065-39.585ZM29.2658-72.5 29.2658-5.12333 37.2408-2.175 37.2408 0 3.28667 0 3.28667-2.175 11.2617-5.12333 11.2617-67.4008 3.28667-70.325 3.28667-72.5Z" fill="#163266" transform="matrix(1.00712 0 0 1 270.06 390.275)"/><path d="M37.3133-39.585C41.5002-39.585 44.8171-40.7329 47.27-43.0408 49.7169-45.3608 50.9433-48.7562 50.9433-53.2392 50.9433-56.121 50.4177-58.5679 49.3725-60.5858 48.3394-62.5977 46.69-64.1202 44.4183-65.1533 42.1467-66.1985 39.156-66.7242 35.4525-66.7242L14.7175-66.7242 18.1975-72.5 42.7992-72.5C49.0825-72.5 54.1092-71.7025 57.8792-70.1075 61.6612-68.5246 64.4042-66.3858 66.0958-63.6792 67.7875-60.9846 68.6333-57.9819 68.6333-54.665 68.6333-51.4569 67.8237-48.5387 66.2167-45.9167 64.6217-43.3067 62.2412-41.18 59.0875-39.5367 55.9277-37.9054 51.9825-36.9146 47.2458-36.5642L47.2458-36.7817C50.8044-36.6367 53.6379-36.111 55.7525-35.2108 57.8792-34.3046 59.5708-33.0117 60.8275-31.32 62.0842-29.6283 63.1294-27.4775 63.9692-24.8675L68.4642-11.4308C69.2858-9.09271 70.0833-7.37083 70.8567-6.25917 71.63-5.1475 72.5483-4.44667 73.6117-4.15667 74.6871-3.87875 76.0585-3.74583 77.72-3.74583L77.72 0.0966667C72.4033 0.483333 68.0896 0.616251 64.7908 0.5075 61.486 0.410833 58.8942-0.00604167 57.0092-0.749167 55.1242-1.48625 53.6742-2.59792 52.6592-4.08417 51.6562-5.56437 50.8285-7.4675 50.17-9.7875L45.6025-24.6983C44.8594-27.2117 44.0921-29.1087 43.3067-30.4017 42.5152-31.6885 41.5667-32.5767 40.455-33.06 39.3433-33.5554 37.9235-33.8092 36.2017-33.8092L17.6175-33.8092 14.065-39.585ZM29.2658-72.5 29.2658-5.12333 37.2408-2.175 37.2408 0 3.28667 0 3.28667-2.175 11.2617-5.12333 11.2617-67.4008 3.28667-70.325 3.28667-72.5Z" fill="#163266" transform="matrix(1.00712 0 0 1 362.599 390.275)"/><path d="M29.2175-5.02667 37.0958-2.175 37.0958 0 3.38333 0 3.38333-2.175 11.2133-5.02667 11.2133-67.4733 3.38333-70.325 3.38333-72.5 37.0958-72.5 37.0958-70.325 29.2175-67.4733ZM78.5658-5.02667 86.4683-2.175 86.4683 0 52.7558 0 52.7558-2.175 60.5858-5.02667 60.5858-67.4733 52.7558-70.325 52.7558-72.5 86.4683-72.5 86.4683-70.325 78.5658-67.4733ZM19.43-34.2925 19.43-40.1167 70.3733-40.1167 70.3733-34.2925Z" fill="#163266" transform="matrix(1.00712 0 0 1 455.138 390.275)"/><path d="M37.0958-2.175 37.0958 0 3.38333 0 3.38333-2.175 11.2133-5.02667 11.2133-67.4733 3.38333-70.325 3.38333-72.5 37.0958-72.5 37.0958-70.325 29.2175-67.4733 29.2175-5.02667Z" fill="#163266" transform="matrix(1.00712 0 0 1 560.568 390.275)"/><path d="M11.5275-4.97833 11.5275-66.3617 2.27167-70.5908 2.27167-72.5 30.74-72.5 69.0442-17.9317 65.25-14.645 65.25-67.4733 56.5742-70.325 56.5742-72.5 78.7833-72.5 78.7833-70.325 70.8567-67.4733 70.8567 0.3625 60.4167 0.3625 14.7658-65.395 16.9408-67.0383 16.9408-4.97833 25.6167-2.175 25.6167 0 3.5525 0 3.5525-2.175Z" fill="#163266" transform="matrix(1.00712 0 0 1 616.296 390.275)"/></g></g></g></g></svg>